<?xml version="1.0" standalone="no"?>
<!DOCTYPE svg PUBLIC "-//W3C//DTD SVG 20010904//EN"
 "http://www.w3.org/TR/2001/REC-SVG-20010904/DTD/svg10.dtd">
<svg version="1.0" xmlns="http://www.w3.org/2000/svg"
 width="1024.000000pt" height="1024.000000pt" viewBox="0 0 1024.000000 1024.000000"
 preserveAspectRatio="xMidYMid meet">

<g transform="translate(0.000000,1024.000000) scale(0.100000,-0.100000)"
fill="#000000" stroke="none">
<path d="M4855 8464 c-213 -20 -275 -28 -370 -44 -637 -112 -1227 -411 -1656
-841 -137 -137 -218 -237 -338 -414 -378 -558 -554 -1140 -568 -1888 -3 -154
-1 -291 6 -360 14 -131 56 -331 101 -478 68 -223 249 -630 374 -842 106 -180
287 -409 437 -552 572 -547 1375 -865 2187 -865 543 0 1182 184 1680 483 464
279 861 696 1092 1147 149 293 288 755 321 1066 7 72 9 223 6 420 -5 349 -20
468 -97 789 -67 281 -117 419 -236 658 -232 462 -474 784 -769 1020 -338 271
-719 464 -1160 587 -167 47 -197 53 -425 86 -167 25 -470 39 -585 28z m605
-249 c154 -23 478 -105 592 -150 138 -55 379 -173 498 -245 426 -257 685 -523
955 -985 156 -266 277 -632 306 -930 16 -162 6 -441 -20 -560 -48 -219 -191
-569 -306 -750 -35 -55 -227 -297 -284 -359 -102 -109 -435 -391 -571 -483
-67 -46 -317 -187 -428 -242 -198 -99 -494 -190 -789 -242 -114 -21 -160 -23
-418 -23 -325 0 -433 11 -660 69 -443 113 -915 368 -1232 667 -430 405 -551
582 -722 1054 -109 301 -146 511 -138 774 14 430 145 819 409 1221 202 306
475 567 808 774 161 99 436 228 602 283 173 57 427 116 568 131 52 6 109 13
125 15 17 2 156 3 310 1 203 -2 312 -7 395 -20z m-3238 -3283 c101 -306 287
-622 502 -854 206 -223 537 -499 736 -614 328 -189 538 -278 840 -358 198 -52
586 -93 790 -82 328 17 561 54 798 127 35 10 68 16 73 13 5 -3 9 -1 9 4 0 5
16 13 35 19 32 10 52 1 23 -10 -15 -6 19 -36 41 -37 11 0 11 3 0 16 -11 13 -9
14 17 8 16 -4 31 -11 32 -16 2 -4 12 -8 23 -8 10 0 19 -4 19 -10 0 -5 18 -10
40 -10 22 0 40 5 40 10 0 6 6 10 13 9 27 -3 58 1 54 9 -3 4 7 8 21 9 25 1 25
0 -8 -17 -19 -10 -38 -16 -42 -13 -5 2 -8 0 -8 -5 0 -29 -353 -155 -590 -210
-213 -50 -422 -72 -690 -72 -257 0 -412 21 -715 96 -383 95 -801 288 -1041
480 -241 194 -315 259 -440 386 -275 279 -450 529 -539 768 -39 104 -50 148
-65 270 -20 159 -32 297 -24 265 3 -11 29 -89 56 -173z m5673 15 c-5 -45 -11
-64 -19 -61 -7 3 -18 -5 -24 -18 -7 -13 -10 -16 -8 -8 3 8 15 48 27 87 13 40
25 71 27 69 2 -3 1 -34 -3 -69z m-5331 -1183 c3 -8 2 -12 -4 -9 -6 3 -10 10
-10 16 0 14 7 11 14 -7z m30 -45 c-3 -5 2 -9 10 -9 9 0 16 -7 16 -16 0 -8 5
-12 11 -9 10 7 148 -124 150 -142 1 -13 383 -324 424 -345 11 -6 82 -51 158
-100 287 -186 749 -375 1054 -430 70 -13 117 -26 110 -30 -7 -5 6 -6 28 -3 22
3 65 1 95 -4 l55 -10 -72 3 c-70 3 -96 -6 -53 -17 12 -3 20 -14 20 -26 0 -14
6 -21 20 -21 13 0 20 -7 20 -20 0 -11 -4 -20 -10 -20 -5 0 -10 -9 -10 -20 0
-11 -5 -20 -11 -20 -5 0 -7 -5 -4 -11 8 -12 -4 -10 -220 33 -225 45 -521 145
-717 244 -91 46 -351 198 -398 232 -245 181 -446 387 -604 617 -103 150 -101
146 -82 139 9 -3 13 -10 10 -15z m4376 8 c0 -2 -10 -12 -22 -23 l-23 -19 19
23 c18 21 26 27 26 19z m-90 -77 c-25 -22 -49 -40 -54 -40 -13 0 -2 11 49 49
56 42 58 38 5 -9z m230 7 c0 -2 -10 -12 -22 -23 l-23 -19 19 23 c18 21 26 27
26 19z m-310 -63 c-8 -8 -23 -20 -34 -25 -13 -7 -9 -1 9 15 34 29 43 33 25 10z
m250 13 c0 -2 -10 -12 -22 -23 l-23 -19 19 23 c18 21 26 27 26 19z m-315 -57
c-3 -5 -16 -15 -28 -21 -19 -9 -19 -8 3 10 28 23 34 26 25 11z m255 6 c0 -2
-8 -10 -17 -17 -16 -13 -17 -12 -4 4 13 16 21 21 21 13z m-310 -41 c0 -2 -10
-9 -22 -15 -22 -11 -22 -10 -4 4 21 17 26 19 26 11z m225 -31 c-109 -92 -525
-338 -542 -320 -3 3 12 13 33 23 22 10 41 21 42 26 2 4 9 7 16 7 29 0 75 31
69 46 -4 11 0 15 13 14 35 -4 44 0 44 20 0 13 7 20 19 20 11 0 22 6 24 13 4 9
7 9 14 0 12 -17 38 1 27 18 -6 11 -5 12 7 2 11 -9 19 -8 34 3 11 8 20 20 20
27 0 7 8 12 17 12 10 0 23 6 30 13 6 6 17 12 23 12 5 0 35 20 65 45 57 46 98
63 45 19z m-425 -89 c0 -2 -10 -9 -22 -15 -22 -11 -22 -10 -4 4 21 17 26 19
26 11z m710 -58 c0 -2 -17 -19 -37 -38 l-38 -34 34 38 c33 34 41 42 41 34z
m-885 -37 c-3 -5 -12 -10 -18 -10 -7 0 -6 4 3 10 19 12 23 12 15 0z m-85 -34
c0 -3 -4 -8 -10 -11 -5 -3 -10 -1 -10 4 0 6 5 11 10 11 6 0 10 -2 10 -4z m-44
-21 c-11 -8 -25 -15 -30 -15 -6 1 0 7 14 15 32 19 40 18 16 0z m-69 -31 c-3
-3 -12 -4 -19 -1 -8 3 -5 6 6 6 11 1 17 -2 13 -5z m913 -38 c0 -2 -8 -10 -17
-17 -16 -13 -17 -12 -4 4 13 16 21 21 21 13z m-195 -147 c-19 -29 -449 -288
-461 -276 -3 2 33 24 78 47 46 24 85 47 86 52 2 4 9 8 16 8 13 0 157 91 241
151 45 32 49 34 40 18z m-485 -289 c-8 -5 -19 -10 -25 -10 -5 0 -3 5 5 10 8 5
20 10 25 10 6 0 3 -5 -5 -10z m-110 -50 c-8 -5 -19 -10 -25 -10 -5 0 -3 5 5
10 8 5 20 10 25 10 6 0 3 -5 -5 -10z m-50 -19 c-8 -5 -26 -11 -40 -15 -21 -5
-20 -3 5 9 32 15 60 20 35 6z m-742 -38 c-10 -2 -26 -2 -35 0 -10 3 -2 5 17 5
19 0 27 -2 18 -5z m-115 -10 c-7 -2 -21 -2 -30 0 -10 3 -4 5 12 5 17 0 24 -2
18 -5z m722 -3 c-27 -12 -43 -12 -25 0 8 5 22 9 30 9 10 0 8 -3 -5 -9z m-1237
-7 c-10 -2 -28 -2 -40 0 -13 2 -5 4 17 4 22 1 32 -1 23 -4z m195 -10 c-23 -2
-64 -2 -90 0 -26 2 -7 3 42 3 50 0 71 -1 48 -3z m597 -103 c0 -5 -10 -10 -22
-9 -22 0 -22 1 -3 9 11 5 21 9 23 9 1 1 2 -3 2 -9z m47 4 c-3 -3 -12 -4 -19
-1 -8 3 -5 6 6 6 11 1 17 -2 13 -5z m-990 -30 c-3 -3 -12 -4 -19 -1 -8 3 -5 6
6 6 11 1 17 -2 13 -5z m30 -20 c-3 -3 -12 -4 -19 -1 -8 3 -5 6 6 6 11 1 17 -2
13 -5z m106 -11 c-7 -2 -19 -2 -25 0 -7 3 -2 5 12 5 14 0 19 -2 13 -5z"/>
<path d="M4805 8033 c-16 -2 -88 -10 -160 -19 -169 -20 -451 -91 -608 -153
-520 -206 -911 -517 -1203 -958 -313 -472 -429 -985 -344 -1513 26 -158 82
-326 170 -505 84 -173 157 -285 287 -440 246 -295 516 -502 913 -704 217 -111
288 -139 477 -191 206 -56 377 -80 619 -87 429 -12 787 68 1211 273 84 41 157
74 161 74 25 0 240 136 314 199 48 41 86 76 85 78 -2 2 -39 -7 -83 -19 -67
-18 -106 -21 -259 -22 -163 0 -190 2 -287 27 -196 49 -358 123 -488 223 -59
45 -192 179 -254 256 l-38 47 -24 -28 c-33 -39 -129 -80 -223 -93 l-81 -12 0
-198 0 -199 -25 -25 c-25 -25 -28 -25 -123 -18 -53 4 -108 10 -122 14 -40 10
-49 55 -49 248 l-1 172 -43 0 c-112 0 -323 83 -445 175 -175 132 -287 337
-294 540 l-3 79 195 48 c107 26 217 49 244 51 l49 2 17 -65 c23 -90 46 -134
101 -194 93 -102 232 -150 368 -128 199 33 312 148 298 302 -5 61 -41 142 -79
177 -52 48 -180 97 -493 188 -181 53 -290 103 -382 176 -89 72 -147 142 -193
234 -59 121 -74 194 -73 370 0 134 3 160 27 239 35 118 109 238 189 312 128
117 290 201 434 226 l72 12 3 164 c4 209 -2 202 167 202 165 0 161 5 161 -208
0 -122 3 -164 13 -166 6 -2 52 -13 102 -25 253 -59 460 -228 557 -456 14 -33
29 -75 32 -92 7 -28 4 -34 -21 -47 -16 -8 -58 -22 -93 -31 -36 -9 -119 -37
-184 -61 -79 -30 -132 -44 -155 -42 -33 3 -38 8 -62 57 -63 133 -195 211 -358
211 -128 0 -226 -45 -290 -134 -67 -93 -52 -201 41 -302 58 -64 110 -85 366
-148 241 -60 308 -83 439 -150 49 -25 96 -46 104 -46 8 0 37 23 64 51 70 71
272 215 383 271 176 89 407 121 600 83 110 -22 330 -133 442 -223 196 -158
328 -347 381 -547 17 -67 21 -103 18 -220 -5 -274 -4 -391 4 -438 8 -46 10
-48 26 -33 32 29 69 109 105 230 58 189 77 328 83 586 5 222 5 227 -26 379
-81 397 -225 697 -509 1056 -232 294 -552 527 -982 714 -198 85 -450 150 -725
186 -108 14 -451 19 -540 8z m1528 -554 c67 -23 70 -32 75 -203 5 -157 -6
-265 -33 -316 -11 -22 -25 -29 -71 -39 -106 -21 -98 -37 -90 172 3 100 9 241
12 314 l7 132 31 -23 c17 -13 48 -30 69 -37z m310 -348 c87 -60 255 -259 344
-406 l42 -70 -207 -12 c-114 -6 -226 -14 -248 -17 l-41 -4 -6 61 c-3 34 -2 82
3 107 14 69 12 163 -5 246 -9 41 -13 79 -10 85 6 9 61 37 78 38 5 1 27 -12 50
-28z m-3355 -391 c86 -62 90 -133 11 -205 -37 -33 -46 -37 -80 -32 -99 13
-160 125 -110 201 46 70 113 84 179 36z m3869 -325 c18 -44 33 -82 33 -85 0
-12 -184 -8 -280 6 -117 17 -167 33 -214 68 -17 13 -51 34 -75 46 -81 41 -41
47 284 46 l220 -1 32 -80z m-3882 -474 c76 -34 125 -114 125 -201 0 -69 -19
-108 -75 -158 -86 -76 -173 -76 -259 -1 -97 85 -104 262 -13 329 73 54 148 65
222 31z m-18 -906 c36 -10 83 -71 83 -108 0 -57 -64 -126 -118 -127 -46 0
-112 50 -127 98 -9 31 10 84 43 114 38 36 60 40 119 23z m97 -534 c250 -91
381 -216 430 -407 20 -77 21 -114 2 -114 -41 0 -139 69 -246 174 -63 62 -152
141 -198 175 -92 69 -162 150 -162 187 0 21 5 24 34 24 19 0 82 -17 140 -39z"/>
<path d="M6225 6190 c-215 -39 -379 -119 -525 -256 -196 -184 -285 -373 -297
-629 -6 -139 13 -268 71 -471 41 -145 58 -180 134 -276 144 -180 378 -279 717
-303 159 -11 399 39 535 111 86 46 234 179 281 252 37 58 69 137 69 171 0 10
12 59 26 107 39 132 42 160 33 363 -10 243 -27 299 -140 489 -89 148 -280 313
-438 377 -134 55 -354 85 -466 65z m303 -233 c96 -25 143 -49 239 -121 173
-131 271 -307 281 -506 16 -346 -176 -640 -483 -739 -116 -38 -190 -46 -292
-31 -216 29 -329 85 -459 225 -142 153 -204 307 -204 509 0 97 26 209 68 291
32 64 113 161 182 219 62 52 252 144 330 161 104 22 234 19 338 -8z"/>
<path d="M6275 5848 c-2 -7 -6 -35 -7 -63 l-3 -49 -57 -14 c-113 -28 -198
-137 -198 -255 0 -74 18 -115 73 -170 52 -52 126 -80 268 -102 74 -11 97 -18
111 -35 37 -45 18 -91 -47 -116 -68 -26 -138 -15 -230 36 l-75 42 -50 -37
c-57 -42 -67 -63 -46 -102 33 -63 103 -108 188 -121 l53 -7 7 -50 c10 -68 34
-87 107 -83 l56 3 -1 66 -2 67 54 4 c77 7 129 45 172 128 31 60 34 71 30 135
-5 77 -24 123 -72 173 -47 51 -94 70 -223 92 -142 25 -165 37 -161 88 2 29 10
41 38 60 29 20 45 23 96 20 51 -3 68 -10 111 -41 28 -20 62 -37 76 -37 26 0
127 85 127 107 0 6 -30 37 -67 68 -49 40 -84 61 -125 72 l-57 16 -3 56 -3 56
-68 3 c-48 2 -69 -1 -72 -10z"/>
<path d="M6178 3103 c7 -3 16 -2 19 1 4 3 -2 6 -13 5 -11 0 -14 -3 -6 -6z"/>
<path d="M4438 2643 c7 -3 16 -2 19 1 4 3 -2 6 -13 5 -11 0 -14 -3 -6 -6z"/>
<path d="M4548 2493 c12 -2 30 -2 40 0 9 3 -1 5 -23 4 -22 0 -30 -2 -17 -4z"/>
<path d="M6962 2345 c0 -16 2 -22 5 -12 2 9 2 23 0 30 -3 6 -5 -1 -5 -18z"/>
<path d="M3090 2327 c0 -18 32 -47 52 -47 9 0 19 7 22 16 8 22 8 26 -3 19 -5
-3 -13 0 -17 6 -4 7 -3 9 4 5 6 -3 13 -2 17 4 4 6 -9 10 -34 10 -28 0 -41 -4
-41 -13z"/>
<path d="M6498 2133 c-11 -3 -18 -14 -18 -28 0 -26 24 -50 40 -40 5 3 10 2 10
-3 0 -6 9 -8 20 -5 31 8 27 61 -6 73 -14 6 -26 9 -27 9 -1 -1 -10 -3 -19 -6z"/>
<path d="M6278 2033 c6 -2 18 -2 25 0 6 3 1 5 -13 5 -14 0 -19 -2 -12 -5z"/>
</g>
</svg>
